
<global>
amp_veltrack=0
ampeg_attack=0.01
ampeg_release=0.35
</global>

<group>
group_label=PP
lpc_hicc1=42
lpc_locc1=0

<region>
hikey=g#5
hivel=127
lokey=g5
loop_end=270678
loop_mode=loop_continuous
loop_start=56055
loop_xfade=25694
lovel=1
lpc=0mWVQJDz9sDZjtZAW9qdwGmLj0ByV0PAjhcIQPpFl79zH1c+sCd5P0hpvb99yJI/hdapv4SFjT94y9A+dwvgvqU+K78MEqk+03eMPSMrID8ZR+2+5+ohvpWpWj85OPq9
lpc_rms=-45.50
offset=18546
pitch_keycenter=g#5
sample=Viola_espressivo_PP_G#5.opus
</region>

<region>
hikey=g#4
hivel=127
lokey=g4
loop_end=268431
loop_mode=loop_continuous
loop_start=57277
loop_xfade=26254
lovel=1
lpc=zT1cQWFvBMJeowRCmGykwfadV0E1WhzBFKCbQGxUjL/cAoO/etALQLyG6L9pG9M+TKt1PvlKgr/vnfY/feNmvzjwar8gQzY/d0NxPwVeP78tXSy/RdgBQA1yaMA4SC9A
lpc_rms=-45.70
offset=13447
pitch_keycenter=g#4
sample=Viola_espressivo_PP_G#4.opus
</region>

<region>
hikey=g#3
hivel=127
lokey=g3
loop_end=293632
loop_mode=loop_continuous
loop_start=52747
loop_xfade=24177
lovel=1
lpc=EfzIQW9LisIF6pVCltoownZulEFhUTTBAnLfQNtU8MAiUQNB6YGVwC/PIkAVtr++19zHv/xOYcA3pydBMD8FwbYF6j8gngZAsmSKwP9cl0BRO5m/NkQtwBcHEkCQWJK+
lpc_rms=-40.50
offset=15326
pitch_keycenter=g#3
sample=Viola_espressivo_PP_G#3.opus
</region>

<region>
hikey=f#5
hivel=127
lokey=f5
loop_end=269863
loop_mode=loop_continuous
loop_start=50022
loop_xfade=22928
lovel=1
lpc=WKU+QQ450MG0d9NBHGGWwWQmd0E0CTbBOPYEQevT4cCJ1r5A9pGewPyEwEBe1k/A+JCqvzNUlkDLK47AEIGJQEs/mcAL7LpAhRCUwLzUlkCxvqbAH2HcQGC148DemYpA
lpc_rms=-39.36
offset=23414
pitch_keycenter=f#5
sample=Viola_espressivo_PP_F#5.opus
</region>

<region>
hikey=f#4
hivel=127
lokey=f4
loop_end=258420
loop_mode=loop_continuous
loop_start=53516
loop_xfade=24530
lovel=1
lpc=/jupQTrbcMKUFotCHXs4wo7620GcdYvBnz8UQd3jCcEunwVBuvyUwEpKekC9K8e/FllVwM9Z8L5T2wlB/cTDwFQZ1b/7AKw/fnanQLstBMFFq9lABRzUwMrT10B9FDvA
lpc_rms=-40.74
offset=19609
pitch_keycenter=f#4
sample=Viola_espressivo_PP_F#4.opus
</region>

<region>
hikey=f#3
hivel=127
lokey=f3
loop_end=266657
loop_mode=loop_continuous
loop_start=49555
loop_xfade=22714
lovel=1
lpc=cm44QWkwr8GedkBBlJNDwM0hhkB3rTnA2uADQP4tYcAKdP0/EPeNv8UuR0CTeHXAJi8OQCCd8r1qLeO+565uv7yVAEAEWAq/bsKcv+UZ+z+559i/v+p2P18nEb8nxpw+
lpc_rms=-38.78
offset=7026
pitch_keycenter=f#3
sample=Viola_espressivo_PP_F#3.opus
</region>

<region>
hikey=e5
hivel=127
lokey=d#5
loop_end=265203
loop_mode=loop_continuous
loop_start=54921
loop_xfade=25174
lovel=1
lpc=3YGxQHNvLsETSyVBndTiwJZQnkCvm2zAuoRWQOVtUMDA9BVA1UQpv2M5Cb+2Hss/fldEv6+aXL4gJFk/qcC9v724hT9+LfC9XzU0vvFibr0YoYU9444gvzO+rz8kfcm+
lpc_rms=-44.54
offset=18060
pitch_keycenter=e5
sample=Viola_espressivo_PP_E5.opus
</region>

<region>
hikey=e4
hivel=127
lokey=d#4
loop_end=270673
loop_mode=loop_continuous
loop_start=44348
loop_xfade=20328
lovel=1
lpc=1o4BQqDKtcKo/stCQpltwsgMw0EKRIvBWa+KQT5yOsGueldAJyRCPyIbQL57W+m99ocXv5hlKMD7XP9AqxWkwAS4HcA1hzY/VcMwQG2osD+CI9G/+XJXwIhAZkAsrwK/
lpc_rms=-37.70
offset=7401
pitch_keycenter=e4
sample=Viola_espressivo_PP_E4.opus
</region>

<region>
hikey=e3
hivel=127
lokey=d#3
loop_end=224974
loop_mode=loop_continuous
loop_start=46590
loop_xfade=21355
lovel=1
lpc=exUaQjmMzcIvUNJCgvRQwuJ/jUGmugvBUG5vQAlvscDgswhBuqaowN9Tmz9ogjVAKhCYwJHMyMDXv59Bhi90wWZyLUBlwu0/V96TwOMg7kDRNpzALBwEQHmk8b9lMao/
lpc_rms=-31.49
offset=10210
pitch_keycenter=e3
sample=Viola_espressivo_PP_E3.opus
</region>

<region>
hikey=d5
hivel=127
lokey=c#5
loop_end=276319
loop_mode=loop_continuous
loop_start=57223
loop_xfade=26229
lovel=1
lpc=U3a7QPSGQMF9VDVBy5v+wPtmxEAO8D3AC1rcPtW6M7+P2n2+VlEbQKliyL8l3Zm89dGHPiq9Zj6ydjW+x0ldP6YJvb/nUGI/pX5YvxX60T81uOW/i2WwPzEry7/Mi5E/
lpc_rms=-44.84
offset=23958
pitch_keycenter=d5
sample=Viola_espressivo_PP_D5.opus
</region>

<region>
hikey=d4
hivel=127
lokey=c#4
loop_end=276733
loop_mode=loop_continuous
loop_start=57309
loop_xfade=26268
lovel=1
lpc=XVCXQfRhRsJ4rE1CVZHNwUrhCUEkheHA1lLPQHh3nMBxrFBAZ1Wxv6bhiT+odMS/CQ7IP+77hcAZgtNAsItTwGdsq7/aLz4/9MPavklgQEBoOWjAs0IgQMfCDsBCwtI/
lpc_rms=-43.71
offset=20173
pitch_keycenter=d4
sample=Viola_espressivo_PP_D4.opus
</region>

<region>
hikey=d3
hivel=127
lokey=c#3
loop_end=211764
loop_mode=loop_continuous
loop_start=43854
loop_xfade=20101
lovel=1
lpc=LKXdQZ/Bk8K5D5RCYVwLwqBtZ0GPjl3Bc1YPQSuMlMAPS71AhM+hwPZHwj/FnTJAA6qUwJPnlr92jC9BbE41wVDDTkBoGLU/Q8fOv78zQkAbdHTA/ufKPis5JkBty8S/
lpc_rms=-34.33
offset=21874
pitch_keycenter=d3
sample=Viola_espressivo_PP_D3.opus
</region>

<region>
hikey=C#6
hivel=127
lokey=b5
loop_end=285009
loop_mode=loop_continuous
loop_start=70250
loop_xfade=32200
lovel=1
lpc=o6NGQWysRsHV4xdBgGDOwGQ4h0B56O6/QnqhPsyEuj0s5OE+krsgvzeUBD+MJhe/qJaMPhhrKD+4yTC/wkNVP0go/r4pFoQ+2ssUvxat/z8pYGfAzye4QGdXEsEovHc+
lpc_rms=-38.04
offset=27458
pitch_keycenter=C6
sample=Viola_espressivo_PP_C6.opus
</region>

<region>
hikey=c5
hivel=127
lokey=b4
loop_end=265102
loop_mode=loop_continuous
loop_start=54900
loop_xfade=25164
lovel=1
lpc=9Yp8QUeiJsJWYT1CC6AKwmbRwUGk44PBhzouQUjsHMEVtfhA4p+BwG7SM0D3fvS/hh9KP11F7791lGNAwB85wLDeoD5duvw/shRXv+28Kj8yYxDAju6MPayJD0Cmkye/
lpc_rms=-40.45
offset=33141
pitch_keycenter=c5
sample=Viola_espressivo_PP_C5.opus
</region>

<region>
hikey=c4
hivel=127
lokey=b3
loop_end=269613
loop_mode=loop_continuous
loop_start=55834
loop_xfade=25593
lovel=1
lpc=XNIEQqLbuML64cZC3cBTwqhCo0E3XnDBO4hWQaK4PcF4pRlBu5hcwAArLL9BTb4/LI8QwCEbi8DdjoNBmUCJwS9X8UDVmQbAy0SlPw6LaEA/OuLAwIDXv/baD0FCHoLA
lpc_rms=-37.43
offset=7544
pitch_keycenter=c4
sample=Viola_espressivo_PP_C4.opus
</region>

<region>
hivel=127
key=c3
loop_end=214030
loop_mode=loop_continuous
loop_start=44324
loop_xfade=20316
lovel=1
lpc=ty4aQh4y2cJPj+hCmSN0wvpb7EG1IuPBUrSdQeVLEsFJhM9AzT7EwGopS0De/p5AR8sVwe6v878BgJRBX5KkwccUCUEJ1Im++sXFPzQ2xr+48GjAFHm/QER8SsBvwVI/
lpc_rms=-32.41
offset=25205
sample=Viola_espressivo_PP_C3.opus
</region>

<region>
hikey=a#5
hivel=127
lokey=a5
loop_end=259947
loop_mode=loop_continuous
loop_start=53832
loop_xfade=24675
lovel=1
lpc=fHcKQXWFSsEk1RlB1Vv+wEnLsUBLurG/MEaiPxzTEsAtEmM/Jpesv7kyb0B2YjnAYxWLP+6S4r9fsos/dk3UP8OTor/qp+i+Yh+dvYm2Pb+S/W1ACplVwHcXBkBTEzLA
lpc_rms=-40.78
offset=72055
pitch_keycenter=a#5
sample=Viola_espressivo_PP_A#5.opus
</region>

<region>
hikey=a#4
hivel=127
lokey=a4
loop_end=262459
loop_mode=loop_continuous
loop_start=54353
loop_xfade=24913
lovel=1
lpc=s0SJQU13L8L+kjlCei37wW9GwEEkEZ3BEDlAQSlla8CSFV/A3ObmQGQU+MDNm59A8IUAwDjeDEDN2N2+xQUTwCcn+b6uwkpAyWg2wJUDukC5YQzBk4/nQLZ4csCVo8c/
lpc_rms=-41.98
offset=22382
pitch_keycenter=a#4
sample=Viola_espressivo_PP_A#4.opus
</region>

<region>
hikey=a#3
hivel=127
lokey=a3
loop_end=279982
loop_mode=loop_continuous
loop_start=49256
loop_xfade=22577
lovel=1
lpc=zPoRQoTi08Jb/vFCdVmUwtJIFEIJx7TBE6FUQddQDsFi6IBA5StvP4sPAsBCIoRAFGacwJj2y8DP86xBa2OOwaTWVD8A7pJACSXQv7j8VUD6zUfAMfMqwD9emkDM/d2/
lpc_rms=-36.32
offset=12797
pitch_keycenter=a#3
sample=Viola_espressivo_PP_A#3.opus
</region>
</group>

<group>
group_label=MF
lpc_hicc1=84
lpc_locc1=43

<region>
hikey=g#5
hivel=127
lokey=g5
loop_end=263521
loop_mode=loop_continuous
loop_start=44352
loop_xfade=20330
lovel=1
lpc=xrptQJstrsCF/69AHtOJwCa8hUDc5zXApu8bQH6tyb9cvMQ/iJU9v6bIrz/TXi+/cElIvv2Yvj/LoGW/l8m2P+9Ap78vko8/7xfEvDKCDD+9LpG+U7E3P0ycDL8DaI8/
lpc_rms=-33.73
offset=16751
pitch_keycenter=g#5
sample=Viola_espressivo_MF_G#5.opus
</region>

<region>
hikey=g#4
hivel=127
lokey=g4
loop_end=275805
loop_mode=loop_continuous
loop_start=50433
loop_xfade=23117
lovel=1
lpc=HAkVQf2Do8EZNphBk4M4wXWK1kArNPm/iTmEPUmTAcBum6k/2HCYPp6siz8J6y/AZNsgQBTyRMCAFFJAXeMUwD8gO0Bf+4/AUQKeQHglX8DZDj8/vdoeQP1Aa8BZIwpA
lpc_rms=-32.25
offset=4069
pitch_keycenter=g#4
sample=Viola_espressivo_MF_G#4.opus
</region>

<region>
hikey=g#3
hivel=127
lokey=g3
loop_end=278490
loop_mode=loop_continuous
loop_start=45050
loop_xfade=20649
lovel=1
lpc=1nGMQUuPNsJ/9TlCqGS8wZ+m3kC/jSU/RKpdwFR4hDzQYhFAPlSbP5J7j8B5oR1AvwYKP2ZON8CVm99AAo4XwXHhCUHvtLrAXss/QNFwvr+GVg4/0ikVP9Owm75lqfs8
lpc_rms=-30.78
offset=8513
pitch_keycenter=g#3
sample=Viola_espressivo_MF_G#3.opus
</region>

<region>
hikey=f#5
hivel=127
lokey=f5
loop_end=273586
loop_mode=loop_continuous
loop_start=45660
loop_xfade=20929
lovel=1
lpc=OsAFQeVTccE2qUZBXZjWwP3qcUB9Fui+2F1YP7j57b+Lptc/mc+Evz8Ngz9ECz8/+RIgvxkSJL5l1rQ/O2eUv/lpCz9fq/M+SmMiP9AWy760dNI+snM/P/EtI8CexDNA
lpc_rms=-29.25
offset=1550
pitch_keycenter=f#5
sample=Viola_espressivo_MF_F#5.opus
</region>

<region>
hikey=f#4
hivel=127
lokey=f4
loop_end=275744
loop_mode=loop_continuous
loop_start=46223
loop_xfade=21187
lovel=1
lpc=4hAgQS3DxcGzQdBB3e+YwUBHaEHTgw7Bpg2/QOMS9MAarchA+fVPwAUi/T9JiSQ+v9ekvwRKdr/yA0xAbr1DwKJ/8D8QZbG+Zc3Xvjj9Tj/+37O/reO/P9bPRr8Jc1s+
lpc_rms=-31.33
offset=1508
pitch_keycenter=f#4
sample=Viola_espressivo_MF_F#4.opus
</region>

<region>
hikey=f#3
hivel=127
lokey=f3
loop_end=246976
loop_mode=loop_continuous
loop_start=40568
loop_xfade=18595
lovel=1
lpc=8mSsQdEIa8JXW3RCVkrwwc2OEkG+WFvAWi2hPylaScANBH5AtDMZv8Lemb/3ZfU/LE9JwCicl71H5dNAmWj6wE0TaUAJUxlA6tnhwCAPy0DXUBTAWwDgP848csDfgRRA
lpc_rms=-31.75
offset=5546
pitch_keycenter=f#3
sample=Viola_espressivo_MF_F#3.opus
</region>

<region>
hikey=e5
hivel=127
lokey=d#5
loop_end=255849
loop_mode=loop_continuous
loop_start=43349
loop_xfade=19870
lovel=1
lpc=NvGiQKHBHcEL0gBBzwtswKTb4D/DKzK/yWWhP2av+r9dnbY/P6Y/vkh6HL55fjU+6RbwPkwSgb8VReI/A6+bv7q7D77pn5Y+zWOgPTkP3j2gfw++7Id/P2Royr8X214/
lpc_rms=-31.83
offset=1461
pitch_keycenter=e5
sample=Viola_espressivo_MF_E5.opus
</region>

<region>
hikey=e4
hivel=127
lokey=d#4
loop_end=269610
loop_mode=loop_continuous
loop_start=45440
loop_xfade=20828
lovel=1
lpc=oMYzQTzy2cE47+tBX560wdUAekGawQfBkfR6QO6EBMDAdzG/tNqvPznhrL3v/6K/uBsoQF1GAsAg+9A+g2lYvqksCb7W6jG9OP4JQMpiG8Detm4+kDNIPuxmGj+tHli9
lpc_rms=-29.64
offset=569
pitch_keycenter=e4
sample=Viola_espressivo_MF_E4.opus
</region>

<region>
hikey=e3
hivel=127
lokey=d#3
loop_end=269573
loop_mode=loop_continuous
loop_start=44964
loop_xfade=20610
lovel=1
lpc=eB8IQq/8wcLgd9pCihZ5wiehvkEKIzzBijXeQNpcFcGRIjhB40/RwCFYC0CS+UVALEYhwb/V70BtXsxAjeiIwbJ6gUEVEbPAjsvGwN3IEkGPyoXAcQnsvxWfgUClesS/
lpc_rms=-27.56
offset=4199
pitch_keycenter=e3
sample=Viola_espressivo_MF_E3.opus
</region>

<region>
hikey=d5
hivel=127
lokey=c#5
loop_end=263190
loop_mode=loop_continuous
loop_start=45428
loop_xfade=20822
lovel=1
lpc=VLOLQGvBBMEWBuVA2UaQwI3zSUDKa/a/Af53P3H90b6eLQA7HNP1Pl2BIb/3Xnk/V5hCvx30JD90hSC/4Z+KP6Sdor8yzyU/ii+PviiibD/VJIK/SKpgP/ielL8zbmc/
lpc_rms=-31.56
offset=8371
pitch_keycenter=d5
sample=Viola_espressivo_MF_D5.opus
</region>

<region>
hikey=d4
hivel=127
lokey=c#4
loop_end=272329
loop_mode=loop_continuous
loop_start=45300
loop_xfade=20764
lovel=1
lpc=CS9DQe0m/8FQxBBC+p3VwYyKhkE/SAvB4iuiQCYtzMD8ssRAe+0ewAcJNr/Tprk/HFyJv95+j7/FtKBAwP7iwKUJv0BMcYPA0O8cQMivJb+/Iwy/Z9ulPnCJlj4c8Te8
lpc_rms=-31.34
offset=2500
pitch_keycenter=d4
sample=Viola_espressivo_MF_D4.opus
</region>

<region>
hikey=d3
hivel=127
lokey=c#3
loop_end=265309
loop_mode=loop_continuous
loop_start=50390
loop_xfade=23097
lovel=1
lpc=xv7ZQUj7ncJZ87BC/kgywoVbHEF6X8vAF2HiQFg+ecC8oBlA6uiovofJYL8rs5c/RBJkwOGGez9fLRtBCyhKwYtgoUA9A4U+1klGvkW5nL6dYZ2+kyT1P8+LZ8BNTgBA
lpc_rms=-29.64
offset=6514
pitch_keycenter=d3
sample=Viola_espressivo_MF_D3.opus
</region>

<region>
hikey=C#6
hivel=127
lokey=b5
loop_end=271072
loop_mode=loop_continuous
loop_start=72133
loop_xfade=33064
lovel=1
lpc=yxofQWcvHMHWZf1A9nDFwD9apUA6413ALpYMQFrKpb8PcaU/WBuPvwk8dT9mdiO/ne4IP4y2mL0X7v+9t2MmP+90675uJlg/JoXfvwP8M0A7YVzA9bqYQPb94sAt97K9
lpc_rms=-32.86
offset=7378
pitch_keycenter=C6
sample=Viola_espressivo_MF_C6.opus
</region>

<region>
hikey=c5
hivel=127
lokey=b4
loop_end=272247
loop_mode=loop_continuous
loop_start=45689
loop_xfade=20942
lovel=1
lpc=3lyjQND1IMFvqRJBxEvUwL3xqkChKi7AC/x3PwDPKL+RyS+9xxTsPsNVrr4laiY+PLvwvnBDLT9cI7A+4bKmvmqEIb/WtA+8p+iqP3b2Vr9R3GI/RYaAv4Y0eD3UyfM+
lpc_rms=-29.60
offset=7158
pitch_keycenter=c5
sample=Viola_espressivo_MF_C5.opus
</region>

<region>
hikey=c4
hivel=127
lokey=b3
loop_end=274094
loop_mode=loop_continuous
loop_start=45488
loop_xfade=20850
lovel=1
lpc=KPC7QbmWb8Kde3xCf/gbwgi1lUGqSY/APJldwPLyZ77re4hAzSALwBHqHb8V4bG8/okbQCfe+cCRy1NB/vVvwR2AWkFW/wvBj6oqQCl3gb7dv5Q/MfCsv9pbIr/Y/8M/
lpc_rms=-26.55
offset=12995
pitch_keycenter=c4
sample=Viola_espressivo_MF_C4.opus
</region>

<region>
hivel=127
key=c3
loop_end=275256
loop_mode=loop_continuous
loop_start=47004
loop_xfade=21545
lovel=1
lpc=nrrkQUB1qMIa/sVCQd1mwlnUnUGSEDTBafARQcekrMATU7xA6KmjwKYNzT//uRdAAUj5wFpurUDA7BBBOfaPwXa9O0HTl0TAIyAwQLRQXMCstii+mU8ZQIGjx78jQuw+
lpc_rms=-28.37
offset=5055
sample=Viola_espressivo_MF_C3.opus
</region>

<region>
hikey=a#5
hivel=127
lokey=a5
loop_end=271662
loop_mode=loop_continuous
loop_start=52585
loop_xfade=24103
lovel=1
lpc=S+7RQMXVCcGTFwRBG8jHwDy51UDXEpXAvmGxQGcZhcDqP2NAdowBwDy4XUAmM/G/UYntPx6Fk78sFP0/tOZpPiKKTj/bjjG/syCOPwF9BT/5Fhc/6+AzPwpHHz/o1uO+
lpc_rms=-29.51
offset=8451
pitch_keycenter=a#5
sample=Viola_espressivo_MF_A#5.opus
</region>

<region>
hikey=a#4
hivel=127
lokey=a4
loop_end=280593
loop_mode=loop_continuous
loop_start=45874
loop_xfade=21027
lovel=1
lpc=i/kBQce8lsFq4pFBQtknwTU80EAbTYLATVmrP9szsL5CfTm/KaEVQExSF8BWDIw+4t/wP8xbPsBmg2ZAmlFRwIq66T9iVUu/8sugP35Zlr6YV9S/uaAtQHVJBsDfFzg/
lpc_rms=-32.35
offset=4233
pitch_keycenter=a#4
sample=Viola_espressivo_MF_A#4.opus
</region>

<region>
hikey=a#3
hivel=127
lokey=a3
loop_end=274730
loop_mode=loop_continuous
loop_start=45032
loop_xfade=20641
lovel=1
lpc=++uMQX5SOcJ8Cj9C41DNweutKEG9p17AESWAv7Mal7+Hv1VAL1NYP+OzlcChJRpAcH4lP87QSMCFgO5Atx8mwVOsJEEV2gvByYm4QDfjNsD+wZw/PpcHP9HK9b9bCaI/
lpc_rms=-30.54
offset=7428
pitch_keycenter=a#3
sample=Viola_espressivo_MF_A#3.opus
</region>
</group>

<group>
group_label=FF
lpc_hicc1=127
lpc_locc1=85

<region>
hikey=g#5
hivel=127
lokey=g5
loop_end=279829
loop_mode=loop_continuous
loop_start=45195
loop_xfade=20716
lovel=1
lpc=astsQOpEucDZSL5AfBWPwAVWe0DKQv2/xycyP7icGD/TPTa/cf67P0dZhr8PVnI/JoydvgPYqj2D3GU/UTw5vzp1bD/F2jq/4fpiPwuRNT7dibO+rjZiP2m6bL8jLaY/
lpc_rms=-34.33
offset=741
pitch_keycenter=g#5
sample=Viola_espressivo_FF_G#5.opus
</region>

<region>
hikey=g#4
hivel=127
lokey=g4
loop_end=254899
loop_mode=loop_continuous
loop_start=50263
loop_xfade=23039
lovel=1
lpc=4oTgQB3RccEkYWRBriIiwVJhDEFBHbnAQ8HsP++tu78Osus/LrLFv5m+N0AP9YrAp488QDsZ6L920eg/yvcfv/fkhr5aj7y+QqB1P1Oai77A9Ku9Dewzvd8bML1gSb8+
lpc_rms=-32.10
offset=789
pitch_keycenter=g#4
sample=Viola_espressivo_FF_G#4.opus
</region>

<region>
hikey=g#3
hivel=127
lokey=g3
loop_end=271546
loop_mode=loop_continuous
loop_start=43940
loop_xfade=20141
lovel=1
lpc=QehfQSV8D8J13RhCm/26wYQSI0GFA2e/l5cfwASoV798lPM/RP+vP6Sri8CoYI5AL1dNwGu1wD4TqpRAcpLpwARbzkA/WpXA+VNaQNR1I8D9rME/IFOXPh81S7+RCNE+
lpc_rms=-27.54
pitch_keycenter=g#3
sample=Viola_espressivo_FF_G#3.opus
</region>

<region>
hikey=f#5
hivel=127
lokey=f5
loop_end=257532
loop_mode=loop_continuous
loop_start=48857
loop_xfade=22394
lovel=1
lpc=mF/QQAPAQsGP5jVBfav6wLT/m0Df9G6/6JRgPUYPX7319vy9mi9JPrsc0T5V+o48hG8RPyy0C78Rxl8/xH+Rv3Z8zz9cWc2/oywmQKQlxr+tl44+4j5oPz4U6b/cv/k/
lpc_rms=-28.68
offset=136
pitch_keycenter=f#5
sample=Viola_espressivo_FF_F#5.opus
</region>

<region>
hikey=f#4
hivel=127
lokey=f4
loop_end=272989
loop_mode=loop_continuous
loop_start=44999
loop_xfade=20626
lovel=1
lpc=eFcLQY9IpsEALaZBB7piwRoJLEFOQbXAMg/+PuN1HD+fawXA5kl+QOjfHsBAdeg+SGvsvruKq71JReo/snEXwGSVzj8GTnW/Nd48P26GtD7DBY+/lK0HP0Ff+TvSuaM9
lpc_rms=-29.19
pitch_keycenter=f#4
sample=Viola_espressivo_FF_F#4.opus
</region>

<region>
hikey=f#3
hivel=127
lokey=f3
loop_end=279353
loop_mode=loop_continuous
loop_start=44728
loop_xfade=20502
lovel=1
lpc=2yKbQencXsJzb4FCX9gawraiUEHLeR7AXCa8P0p+msDd07hA1cKBv3GEP8ADAz9AgicWwBruFr//ttFAswQRwWBNykA5O+6+RSynwNBo0kBES0LAdNadvlQ0tT11VgY/
lpc_rms=-28.61
offset=919
pitch_keycenter=f#3
sample=Viola_espressivo_FF_F#3.opus
</region>

<region>
hikey=e5
hivel=127
lokey=d#5
loop_end=271679
loop_mode=loop_continuous
loop_start=44452
loop_xfade=20375
lovel=1
lpc=Zq6uQNEMKcEnXglBji2JwDmsJEAaj8O/JIQBQF45CMANeo0/QWmyvRrJyr7xVWw/vYj3vVmv/77ouoA/JrRMvzEXv726fGs+RA8qPt05Qj0ir6O9eFZAP1Kes78WKGQ/
lpc_rms=-29.65
pitch_keycenter=e5
sample=Viola_espressivo_FF_E5.opus
</region>

<region>
hikey=e4
hivel=127
lokey=d#4
loop_end=273867
loop_mode=loop_continuous
loop_start=45312
loop_xfade=20770
lovel=1
lpc=/98jQcwHx8EIEctBUrd/wYzRGUEu16PAPzcAP/CHoD/or9i/EPi/P0cxQb8sZ3U+gJUev8+ozj+/VVy/fl5lv9qVOT6yMHg/wtlUPhMFJr/EWjS/s2NAPw+hND5YrZw8
lpc_rms=-26.48
pitch_keycenter=e4
sample=Viola_espressivo_FF_E4.opus
</region>

<region>
hikey=e3
hivel=127
lokey=d#3
loop_end=276764
loop_mode=loop_continuous
loop_start=45405
loop_xfade=20812
lovel=1
lpc=xkvXQXACn8Iscb5CJwtuwvaZukG/jrbAu9+FwOVHd0DtXOE/bYtgvgjPpMDCLvxAjM0hwWP20kD/085A54huwa5WPUGLVKXA9jSlv4zCc0CsMgi/Q76pv4GpZbwJ1ic/
lpc_rms=-25.17
offset=713
pitch_keycenter=e3
sample=Viola_espressivo_FF_E3.opus
</region>

<region>
hikey=d5
hivel=127
lokey=c#5
loop_end=280422
loop_mode=loop_continuous
loop_start=47129
loop_xfade=21602
lovel=1
lpc=vxCGQDbP+MDbF9xAsuihwHEGgEBrYhLAdw56PxqyhT2Erci/bRsYQFd7BsBngwhAcpunv8VxfD2Czf8+CW70vpA9Pz/CLUi/j8U5P0FFkb6tWKG+oLFTP4Z/Rr8clAo/
lpc_rms=-30.76
pitch_keycenter=d5
sample=Viola_espressivo_FF_D5.opus
</region>

<region>
hikey=d4
hivel=127
lokey=c#4
loop_end=272759
loop_mode=loop_continuous
loop_start=45348
loop_xfade=20786
lovel=1
lpc=s9E1QXsg5sHxvO5BdySTwY/jGUG1vxrAe3EKwPLDjD/gWKa+9UyLP0z5CL/aUfA+kAPMv3DzOD/r+QNAIDlBwEoB0z9/AXm/n7V/P3ZMJL9DoLY+i964PqU3s7+lp4g/
lpc_rms=-27.14
offset=45
pitch_keycenter=d4
sample=Viola_espressivo_FF_D4.opus
</region>

<region>
hikey=d3
hivel=127
lokey=c#3
loop_end=277238
loop_mode=loop_continuous
loop_start=45986
loop_xfade=21078
lovel=1
lpc=PoaZQVNDWcJyynZC0FsPwi2lZUGgZgvBkJyuQCneUsBk3VZAalqcv9erJ8DcPLpAaWm/wBvzrD5BiuZA/jkXwTPT9kCgjnvAG7RUvjw/Aj9XSRNAs+YtwDMe6z7CxcE+
lpc_rms=-28.56
offset=215
pitch_keycenter=d3
sample=Viola_espressivo_FF_D3.opus
</region>

<region>
hikey=C#6
hivel=127
lokey=b5
loop_end=276135
loop_mode=loop_continuous
loop_start=45033
loop_xfade=20641
lovel=1
lpc=WjTkQGSrwcDCp6FAdslrwPfCcUB+VinAWAoGQPDnn78SduA/YBq8v9cvpz+orwG/b0zpPmFfjj4nvVi+c3lMP3Opur4QSWs/1FbBvxDAEUCYxQPAzI8oQItlecBwVmC/
lpc_rms=-31.72
pitch_keycenter=C6
sample=Viola_espressivo_FF_C6.opus
</region>

<region>
hikey=c5
hivel=127
lokey=b4
loop_end=283528
loop_mode=loop_continuous
loop_start=46543
loop_xfade=21334
lovel=1
lpc=XbuQQO3xCcG7UgFBNRbBwKXblEAH+RXAqZ9SP83zgT67wZm/uyw4P5S5sr7bJr8+1+AlvmTjdb3rhwY/HbsEv1128z3DeJK+TTXEPjY3Dj8BdMC+okbnPv10ab9RekY/
lpc_rms=-29.82
offset=934
pitch_keycenter=c5
sample=Viola_espressivo_FF_C5.opus
</region>

<region>
hikey=c4
hivel=127
lokey=b3
loop_end=255342
loop_mode=loop_continuous
loop_start=43682
loop_xfade=20022
lovel=1
lpc=riKYQaiRQMI3DENCXRPIwUq6w0DCJ/4/KTuzv6Y6nsDodslATccSwKRCIcC+xYxAqxp4wMReA78xXwNBa6lRwcSUO0G1Ob3A/2/EP2eaA78cO+E+Gtgjv8gHrz9hjwW/
lpc_rms=-24.71
offset=610
pitch_keycenter=c4
sample=Viola_espressivo_FF_C4.opus
</region>

<region>
hivel=127
key=c3
loop_end=280979
loop_mode=loop_continuous
loop_start=47324
loop_xfade=21692
lovel=1
lpc=5L2/QcEDjMKTy6dCKPRbwiX31UEnmGnBGoXdQJdSj8Bt5eVAiLrLwKEFkD7bf7NAMfEFwavgdUADFa1A74IuwUMwP0GrqgXB7MixP44FRkDezWbAvsU6QOfXsb/1GYA+
lpc_rms=-24.26
sample=Viola_espressivo_FF_C3.opus
</region>

<region>
hikey=a#5
hivel=127
lokey=a5
loop_end=281957
loop_mode=loop_continuous
loop_start=45575
loop_xfade=20890
lovel=1
lpc=JtHlQFDwG8EHDhNBZJjNwDR2xEChMVrA1cBuQPiVGcCcZhhA4y00v9cyxD/zSbK+3r6FP+7Xmb4Jq9s/4lY4vw4SBUDuONa/4mACQN+X7764xu0/wVBIv40z4z8m832/
lpc_rms=-29.96
pitch_keycenter=a#5
sample=Viola_espressivo_FF_A#5.opus
</region>

<region>
hikey=a#4
hivel=127
lokey=a4
loop_end=275006
loop_mode=loop_continuous
loop_start=45077
loop_xfade=20662
lovel=1
lpc=xrzuQIQGiMGnnoJBhYwNwXKuk0A1h1bApEQVQJf8er/cUUO/IiDQP5A51r8rqh0/M2CPP1E98b8b8sE/vWKSv67Wfj9osKm+H5LaPrCS4z7/FSrAA9RvQF6/CMCeqcI+
lpc_rms=-29.64
pitch_keycenter=a#4
sample=Viola_espressivo_FF_A#4.opus
</region>

<region>
hikey=a#3
hivel=127
lokey=a3
loop_end=263613
loop_mode=loop_continuous
loop_start=43959
loop_xfade=20149
lovel=1
lpc=qdt1QQjpI8JlnjJCKzDbwcFMVEG+EK/APeRHP1AKKL9YrOw+JIqnP2xA1b+7VA8/HCBlv6hDtz5Q+1lAY4DRwBG000AsQaDAByg8QPTYi7+EktW+9tmCPyR1LL9zuLk+
lpc_rms=-27.84
pitch_keycenter=a#3
sample=Viola_espressivo_FF_A#3.opus
</region>
</group>